<svg width="29" height="20" viewBox="0 0 29 20" fill="none" xmlns="http://www.w3.org/2000/svg">
<mask id="mask0_0_1526" style="mask-type:luminance" maskUnits="userSpaceOnUse" x="0" y="0" width="29" height="20">
<path fill-rule="evenodd" clip-rule="evenodd" d="M0 0H28.5565V19.9956H0V0Z" fill="white"/>
</mask>
<g mask="url(#mask0_0_1526)">
<path fill-rule="evenodd" clip-rule="evenodd" d="M11.4558 5.67246V14.2696C13.9512 12.8325 16.4133 11.4146 18.9206 9.97046C16.4066 8.52298 13.9475 7.10707 11.4558 5.67246ZM13.9889 19.9956C12.1621 19.9502 9.96265 19.9232 7.766 19.8309C6.43734 19.7752 5.10902 19.6511 3.78742 19.4986C1.93035 19.2845 0.758717 18.1161 0.445229 16.2074C0.0378851 13.7264 -0.0569788 11.2241 0.0291492 8.71629C0.0729412 7.44218 0.167805 6.16885 0.279469 4.89877C0.332221 4.29923 0.441309 3.69846 0.590493 3.11494C0.981037 1.58637 2.22077 0.603456 3.9076 0.399616C6.55797 0.0791841 9.222 -0.000111882 11.8855 1.1842e-07C15.09 0.000112118 18.2951 0.0619361 21.4988 0.144704C22.6218 0.173712 23.7458 0.309344 24.8612 0.457744C26.6541 0.696192 27.7633 1.72906 28.1004 3.50907C28.2938 4.53006 28.4384 5.57077 28.4808 6.60755C28.5553 8.43024 28.5728 10.2574 28.5421 12.0814C28.5163 13.616 28.4049 15.151 28.0613 16.6561C27.6966 18.253 26.5207 19.347 24.8794 19.5032C23.0637 19.676 21.2422 19.8046 19.4203 19.8884C17.736 19.9659 16.0479 19.9587 13.9889 19.9956Z" fill="#4CB5C3"/>
</g>
</svg>
