<svg width="26" height="26" viewBox="0 0 26 26" fill="none" xmlns="http://www.w3.org/2000/svg">
<path fill-rule="evenodd" clip-rule="evenodd" d="M13.052 25.6C12.9672 25.6 12.8824 25.6 12.7971 25.5996C10.7904 25.6045 8.93633 25.5535 7.1332 25.4438C5.48008 25.3432 3.97109 24.7719 2.76914 23.7918C1.60937 22.8461 0.817383 21.5674 0.415234 19.9916C0.0652344 18.6197 0.0466797 17.2731 0.0289063 15.9705C0.0160156 15.0359 0.00273437 13.9285 0 12.8023C0.00273437 11.6715 0.0160156 10.5641 0.0289063 9.6295C0.0466797 8.32715 0.0652344 6.98047 0.415234 5.6084C0.817383 4.03262 1.60937 2.75391 2.76914 1.80821C3.97109 0.82813 5.48008 0.25684 7.1334 0.156254C8.93652 0.0466842 10.791 -0.00448771 12.802 0.0003951C14.8092 -0.00390177 16.6627 0.0466842 18.4658 0.156254C20.1189 0.25684 21.6279 0.82813 22.8299 1.80821C23.9898 2.75391 24.7816 4.03262 25.1838 5.6084C25.5338 6.98028 25.5523 8.32715 25.5701 9.6295C25.583 10.5641 25.5965 11.6715 25.599 12.7977V12.8023C25.5965 13.9285 25.583 15.0359 25.5701 15.9705V15.9707C25.5523 17.273 25.534 18.6196 25.1838 19.9916C24.7816 21.5674 23.9898 22.8461 22.8299 23.7918C21.6279 24.7719 20.1189 25.3432 18.4658 25.4438C16.7391 25.5488 14.9652 25.6 13.052 25.6ZM12.7971 23.5996C14.7711 23.6043 16.5836 23.5545 18.3443 23.4475C19.5943 23.3715 20.6781 22.9658 21.566 22.2418C22.3867 21.5725 22.952 20.649 23.2459 19.4971C23.5373 18.3551 23.5541 17.1289 23.5703 15.9432C23.583 15.0148 23.5963 13.9152 23.599 12.8C23.5963 11.6846 23.583 10.5852 23.5703 9.65684C23.5541 8.4711 23.5373 7.24493 23.2459 6.10274C22.952 4.95079 22.3867 4.02735 21.566 3.35801C20.6781 2.63418 19.5943 2.22852 18.3443 2.15254C16.5836 2.04532 14.7711 1.9959 12.8018 2.0002C10.8281 1.99551 9.01543 2.04532 7.25469 2.15254C6.00469 2.22852 4.9209 2.63418 4.03301 3.35801C3.2123 4.02735 2.64707 4.95079 2.35313 6.10274C2.06172 7.24493 2.04492 8.4709 2.02871 9.65684C2.01602 10.5859 2.00273 11.6861 2 12.8023C2.00273 13.9137 2.01602 15.0141 2.02871 15.9432C2.04492 17.1289 2.06172 18.3551 2.35313 19.4971C2.64707 20.649 3.2123 21.5725 4.03301 22.2418C4.9209 22.9656 6.00469 23.3713 7.25469 23.4473C9.01543 23.5545 10.8285 23.6045 12.7971 23.5996ZM6.49941 12.8C6.49941 16.2463 9.30332 19.05 12.7494 19.05C16.1957 19.05 18.9994 16.2463 18.9994 12.8C18.9994 9.35372 16.1957 6.55 12.7494 6.55C9.30332 6.55 6.49941 9.35372 6.49941 12.8ZM12.7494 8.55C10.4061 8.55 8.49941 10.4566 8.49941 12.8C8.49941 15.1434 10.4061 17.05 12.7494 17.05C15.093 17.05 16.9994 15.1434 16.9994 12.8C16.9994 10.4566 15.093 8.55 12.7494 8.55ZM18.1994 6.05C18.1994 5.22149 18.8711 4.55 19.6994 4.55C20.5279 4.55 21.1994 5.22149 21.1994 6.05C21.1994 6.87852 20.5279 7.55 19.6994 7.55C18.8711 7.55 18.1994 6.87852 18.1994 6.05Z" fill="#4CB5C3"/>
</svg>
