<svg width="18" height="18" viewBox="0 0 18 18" fill="none" xmlns="http://www.w3.org/2000/svg">
<path fill-rule="evenodd" clip-rule="evenodd" d="M12.605 11.5492L17.8106 16.7548C17.9564 16.9006 17.9564 17.1369 17.8106 17.2828L17.2828 17.8106C17.1369 17.9564 16.9006 17.9564 16.7548 17.8106L11.5492 12.605C10.3302 13.5923 8.78055 14.1867 7.09335 14.1867C3.1821 14.1867 0 11.0046 0 7.09335C0 3.1821 3.18206 0 7.09331 0C11.0046 0 14.1867 3.1821 14.1867 7.09335C14.1867 8.78055 13.5923 10.3302 12.605 11.5492ZM1.49335 7.09334C1.49335 10.1814 4.00533 12.6933 7.09334 12.6933C10.1814 12.6933 12.6933 10.1814 12.6933 7.09334C12.6933 4.00533 10.1814 1.49335 7.09334 1.49335C4.00533 1.49335 1.49335 4.00533 1.49335 7.09334Z" fill="#465160"/>
</svg>
